# xmcd CD database file
#
# Track frame offsets:
#	150
#	21600
#	46875
#	71100
#	91500
#	108900
#	138000
#	179850
#	207675
#	227004
#
# Disc length: 4503 seconds
#
# Revision: 0
# Processed by: cddbd v1.5.1PL2 Copyright (c) Steve Scherf et al.
# Submitted via: CDex 1.51
#
DISCID=8d11950a
DTITLE=Afrissippi - Fulani Journey
DYEAR=2005
DGENRE=Blues
TTITLE0=Ngol Jimol
TTITLE1=Ngoppe Kam Mi Yaha
TTITLE2=Bafal
TTITLE3=Ayo Leele
TTITLE4=Dono
TTITLE5=Nduumandii - Hands Off That Girl
TTITLE6=Njulli - Fulani Journey
TTITLE7=Bambangel
TTITLE8=Nawle
TTITLE9=Video
EXTD=YEAR: 2005
EXTT0=
EXTT1=
EXTT2=
EXTT3=
EXTT4=
EXTT5=
EXTT6=
EXTT7=
EXTT8=
EXTT9=
PLAYORDER=
